<?xml version="1.0" encoding="UTF-8"?>
<svg id="Layer_1" data-name="Layer 1" xmlns="http://www.w3.org/2000/svg" xmlns:xlink="http://www.w3.org/1999/xlink" viewBox="0 0 1343.19 330.74">
  <defs>
    <style>
      .cls-1 {
        fill: url(#linear-gradient-2);
      }

      .cls-2 {
        mask: url(#mask-1);
      }

      .cls-3 {
        mask: url(#mask);
      }

      .cls-4 {
        fill: url(#linear-gradient-4);
      }

      .cls-5 {
        fill: url(#linear-gradient-3);
      }

      .cls-6 {
        clip-path: url(#clippath-1);
      }

      .cls-7 {
        fill: url(#linear-gradient-5);
      }

      .cls-8 {
        fill: #4bc4dc;
      }

      .cls-9 {
        clip-rule: evenodd;
        fill: none;
      }

      .cls-10 {
        fill: #a1dbea;
        fill-rule: evenodd;
      }

      .cls-11 {
        clip-path: url(#clippath-2);
      }

      .cls-12 {
        fill: #052343;
      }

      .cls-13 {
        fill: url(#linear-gradient);
      }

      .cls-14 {
        clip-path: url(#clippath);
      }
    </style>
    <clipPath id="clippath">
      <path class="cls-9" d="M67.17,59.06l114.76.59-101.41,116.54,63.44.12-101.2,132.2-.38-55.3-.03-.39c-23.5-1.18-42.36-20.77-42.36-44.55v-104.62c0-24.53,20.07-44.6,44.6-44.6h22.57Z"/>
    </clipPath>
    <linearGradient id="linear-gradient" x1="97.19" y1="234.49" x2="78.13" y2="79.1" gradientUnits="userSpaceOnUse">
      <stop offset="0" stop-color="#0073ba"/>
      <stop offset="1" stop-color="#4bc4dc"/>
    </linearGradient>
    <linearGradient id="linear-gradient-2" x1="40.24" y1="148.11" x2="173.45" y2="111.81" gradientTransform="translate(20.15 -40.34)" gradientUnits="userSpaceOnUse">
      <stop offset="0" stop-color="#fff"/>
      <stop offset="1" stop-color="#231f20"/>
    </linearGradient>
    <mask id="mask" x="14.71" y="73.1" width="125.32" height="60.08" maskUnits="userSpaceOnUse">
      <rect class="cls-1" x="14.71" y="73.1" width="125.32" height="60.08"/>
    </mask>
    <clipPath id="clippath-1">
      <path class="cls-9" d="M256.91,271.06c.04,2.79.25,6.86.25,13.01,0,8.56.19,17.31-.04,25.85l-41.76-34.19c-4.3-3.66-5.1-5.32-7.17-5.34l-115.25-1.32,113.07-125.91-61.88-2.38L245.23,0c.33,1.32-19.61,65.54-20.06,77.65h24.46c29.05,0,52.82,20.07,52.82,44.6v104.62c0,22.44-19.9,41.15-45.53,44.17"/>
    </clipPath>
    <linearGradient id="linear-gradient-3" x1="257.56" y1="40.96" x2="137.63" y2="269.33" gradientUnits="userSpaceOnUse">
      <stop offset="0" stop-color="#f7b418"/>
      <stop offset="1" stop-color="#da1f26"/>
    </linearGradient>
    <clipPath id="clippath-2">
      <path class="cls-9" d="M289.78,193.83c-8.67,60.27-124.24,40.38-134.53,59.85l4.75.04,16.11.14c20.86.18,65.72-.18,86.58-.18,14.9,0,27.09-20.07,27.09-44.6v-15.25Z"/>
    </clipPath>
    <linearGradient id="linear-gradient-4" x1="194.81" y1="236.94" x2="53.31" y2="278.35" gradientTransform="translate(45.75 -18.36)" xlink:href="#linear-gradient-2"/>
    <mask id="mask-1" x="155.25" y="193.83" width="134.53" height="60.27" maskUnits="userSpaceOnUse">
      <rect class="cls-4" x="155.25" y="193.83" width="134.53" height="60.08"/>
    </mask>
    <linearGradient id="linear-gradient-5" x1="415.81" y1="220.55" x2="120.28" y2="225.77" gradientUnits="userSpaceOnUse">
      <stop offset="0" stop-color="#e8584a"/>
      <stop offset="1" stop-color="#f7b418"/>
    </linearGradient>
  </defs>
  <g>
    <g>
      <g class="cls-14">
        <rect class="cls-13" y="59.05" width="181.94" height="249.46"/>
      </g>
      <g class="cls-3">
        <path class="cls-10" d="M14.71,133.18c8.08-60.27,115.73-40.38,125.32-59.85l-4.43-.04-15-.14c-19.43-.18-61.22.18-80.65.18-13.88,0-25.24,20.07-25.24,44.6v15.25Z"/>
      </g>
    </g>
    <g>
      <g class="cls-6">
        <rect class="cls-5" x="92.95" width="209.5" height="309.91"/>
      </g>
      <g class="cls-11">
        <g class="cls-2">
          <rect class="cls-7" x="155.25" y="193.83" width="134.53" height="60.27"/>
        </g>
      </g>
    </g>
  </g>
  <rect class="cls-8" x="338.44" y="19.65" width="6.7" height="311.09"/>
  <g>
    <polygon class="cls-12" points="398.31 84.61 381.07 84.61 381.07 76.44 425.21 76.44 425.21 84.61 407.97 84.61 407.97 128.44 398.31 128.44 398.31 84.61"/>
    <path class="cls-12" d="M605.06,129.19c-5.25,0-9.99-1.15-14.23-3.45-4.23-2.3-7.55-5.48-9.96-9.55-2.4-4.06-3.6-8.64-3.6-13.74s1.21-9.68,3.64-13.75c2.43-4.06,5.76-7.24,9.99-9.55,4.24-2.3,8.98-3.46,14.23-3.46,4.26,0,8.15.74,11.66,2.23,3.52,1.49,6.49,3.64,8.91,6.46l-6.24,5.87c-3.76-4.06-8.4-6.09-13.89-6.09-3.57,0-6.76.78-9.58,2.34-2.82,1.56-5.03,3.73-6.61,6.5-1.59,2.77-2.38,5.92-2.38,9.44s.79,6.66,2.38,9.44c1.58,2.77,3.79,4.94,6.61,6.5,2.82,1.56,6.02,2.34,9.58,2.34,5.5,0,10.13-2.06,13.89-6.17l6.24,5.94c-2.43,2.82-5.41,4.98-8.95,6.46-3.54,1.49-7.44,2.23-11.7,2.23"/>
    <polygon class="cls-12" points="479.93 76.44 479.93 128.44 470.27 128.44 470.27 106.16 443.38 106.16 443.38 128.44 433.72 128.44 433.72 76.44 443.38 76.44 443.38 97.91 470.27 97.91 470.27 76.44 479.93 76.44"/>
    <polygon class="cls-12" points="534.13 120.35 534.13 128.44 495.13 128.44 495.13 76.44 533.09 76.44 533.09 84.54 504.78 84.54 504.78 98.06 529.89 98.06 529.89 106.01 504.78 106.01 504.78 120.35 534.13 120.35"/>
    <path class="cls-12" d="M660.53,120.72c3.47,0,6.59-.78,9.36-2.34,2.77-1.56,4.95-3.74,6.54-6.54,1.58-2.8,2.38-5.93,2.38-9.4s-.79-6.6-2.38-9.4c-1.58-2.8-3.77-4.98-6.54-6.54-2.77-1.56-5.89-2.34-9.36-2.34s-6.59.78-9.36,2.34c-2.77,1.56-4.95,3.74-6.54,6.54-1.59,2.8-2.38,5.93-2.38,9.4s.79,6.6,2.38,9.4c1.58,2.8,3.76,4.98,6.54,6.54,2.77,1.56,5.89,2.34,9.36,2.34M660.53,129.19c-5.3,0-10.08-1.15-14.34-3.45-4.26-2.3-7.6-5.5-10.03-9.59-2.43-4.09-3.64-8.65-3.64-13.71s1.21-9.62,3.64-13.71c2.43-4.09,5.77-7.28,10.03-9.58,4.26-2.3,9.04-3.46,14.34-3.46s10.08,1.15,14.34,3.46c4.26,2.3,7.6,5.48,10.03,9.55,2.43,4.06,3.64,8.64,3.64,13.75s-1.21,9.68-3.64,13.74c-2.43,4.06-5.77,7.24-10.03,9.55-4.26,2.3-9.04,3.45-14.34,3.45Z"/>
    <polygon class="cls-12" points="747.79 128.44 747.72 93.97 730.63 122.5 726.32 122.5 709.23 94.42 709.23 128.44 700.02 128.44 700.02 76.44 707.97 76.44 728.62 110.91 748.91 76.44 756.86 76.44 756.93 128.44 747.79 128.44"/>
    <polygon class="cls-12" points="819.97 128.44 819.9 93.97 802.81 122.5 798.5 122.5 781.41 94.42 781.41 128.44 772.2 128.44 772.2 76.44 780.15 76.44 800.81 110.91 821.09 76.44 829.04 76.44 829.11 128.44 819.97 128.44"/>
    <path class="cls-12" d="M866.75,129.19c-7.18,0-12.78-2.02-16.79-6.05-4.01-4.04-6.02-9.82-6.02-17.35v-29.35h9.66v28.97c0,10.2,4.41,15.31,13.22,15.31s13.15-5.1,13.15-15.31v-28.97h9.51v29.35c0,7.53-1.99,13.31-5.98,17.35-3.99,4.04-9.57,6.05-16.75,6.05"/>
    <polygon class="cls-12" points="950.44 76.44 950.44 128.44 942.49 128.44 913.82 93.23 913.82 128.44 904.23 128.44 904.23 76.44 912.18 76.44 940.86 111.65 940.86 76.44 950.44 76.44"/>
    <rect class="cls-12" x="965.64" y="76.44" width="9.66" height="52.01"/>
    <path class="cls-12" d="M1014.64,129.19c-5.25,0-9.99-1.15-14.23-3.45-4.23-2.3-7.55-5.48-9.96-9.55-2.4-4.06-3.6-8.64-3.6-13.74s1.21-9.68,3.64-13.75c2.43-4.06,5.76-7.24,9.99-9.55,4.24-2.3,8.98-3.46,14.23-3.46,4.26,0,8.15.74,11.66,2.23,3.52,1.49,6.49,3.64,8.91,6.46l-6.24,5.87c-3.76-4.06-8.4-6.09-13.89-6.09-3.57,0-6.76.78-9.58,2.34-2.82,1.56-5.03,3.73-6.61,6.5-1.59,2.77-2.38,5.92-2.38,9.44s.79,6.66,2.38,9.44c1.58,2.77,3.79,4.94,6.61,6.5,2.82,1.56,6.02,2.34,9.58,2.34,5.5,0,10.13-2.06,13.89-6.17l6.24,5.94c-2.43,2.82-5.41,4.98-8.95,6.46-3.54,1.49-7.44,2.23-11.7,2.23"/>
    <path class="cls-12" d="M1075.24,108.83l-9.81-22.73-9.73,22.73h19.54ZM1078.43,116.41h-26l-5.13,12.04h-9.96l23.4-52.01h9.51l23.48,52.01h-10.1l-5.2-12.04Z"/>
    <polygon class="cls-12" points="1109.53 84.61 1092.29 84.61 1092.29 76.44 1136.42 76.44 1136.42 84.61 1119.19 84.61 1119.19 128.44 1109.53 128.44 1109.53 84.61"/>
    <rect class="cls-12" x="1144.93" y="76.44" width="9.66" height="52.01"/>
    <path class="cls-12" d="M1194.16,120.72c3.47,0,6.59-.78,9.36-2.34,2.77-1.56,4.95-3.74,6.54-6.54,1.58-2.8,2.38-5.93,2.38-9.4s-.79-6.6-2.38-9.4c-1.58-2.8-3.77-4.98-6.54-6.54-2.77-1.56-5.89-2.34-9.36-2.34s-6.59.78-9.36,2.34c-2.77,1.56-4.95,3.74-6.54,6.54-1.59,2.8-2.38,5.93-2.38,9.4s.79,6.6,2.38,9.4c1.58,2.8,3.76,4.98,6.54,6.54,2.77,1.56,5.89,2.34,9.36,2.34M1194.16,129.19c-5.3,0-10.08-1.15-14.34-3.45-4.26-2.3-7.6-5.5-10.03-9.59-2.43-4.09-3.64-8.65-3.64-13.71s1.21-9.62,3.64-13.71c2.43-4.09,5.77-7.28,10.03-9.58,4.26-2.3,9.04-3.46,14.34-3.46s10.08,1.15,14.34,3.46c4.26,2.3,7.6,5.48,10.03,9.55,2.43,4.06,3.64,8.64,3.64,13.75s-1.21,9.68-3.64,13.74c-2.43,4.06-5.77,7.24-10.03,9.55-4.26,2.3-9.04,3.45-14.34,3.45Z"/>
    <polygon class="cls-12" points="1279.86 76.44 1279.86 128.44 1271.91 128.44 1243.23 93.23 1243.23 128.44 1233.65 128.44 1233.65 76.44 1241.6 76.44 1270.28 111.65 1270.28 76.44 1279.86 76.44"/>
  </g>
  <g>
    <path class="cls-12" d="M436.72,210.91c7.35,0,12.89-1.6,16.62-4.79,3.73-3.19,5.6-7.74,5.6-13.64s-1.87-10.48-5.6-13.73c-3.73-3.25-9.27-4.88-16.62-4.88h-19.87v37.04h19.87ZM438.89,145.69c11.44,0,21.38,1.9,29.81,5.69,8.43,3.79,14.94,9.21,19.51,16.26,4.58,7.05,6.87,15.33,6.87,24.84s-2.29,17.77-6.87,24.75c-4.58,6.99-11.08,12.38-19.51,16.17-8.43,3.79-18.37,5.69-29.81,5.69h-22.04v33.06h-35.77v-126.47h57.82Z"/>
    <path class="cls-12" d="M576.1,192.48c0-5.9-1.87-10.48-5.6-13.73-3.73-3.25-9.27-4.88-16.62-4.88h-19.87v37.04h19.87c7.35,0,12.89-1.6,16.62-4.79,3.73-3.19,5.6-7.74,5.6-13.64M553.52,238.55h-19.51v33.61h-35.77v-126.47h57.82c11.44,0,21.38,1.9,29.81,5.69,8.43,3.79,14.94,9.21,19.51,16.26,4.58,7.05,6.87,15.33,6.87,24.84s-2.14,17.13-6.41,23.94c-4.28,6.81-10.39,12.13-18.34,15.99l27.28,39.75h-38.3l-22.95-33.61Z"/>
    <path class="cls-12" d="M681.51,245.06c6.38,0,12.17-1.51,17.35-4.52,5.18-3.01,9.28-7.26,12.29-12.74,3.01-5.48,4.52-11.78,4.52-18.88s-1.51-13.4-4.52-18.88c-3.01-5.48-7.11-9.73-12.29-12.74-5.18-3.01-10.96-4.52-17.35-4.52s-12.17,1.51-17.34,4.52c-5.18,3.01-9.28,7.26-12.29,12.74-3.01,5.48-4.52,11.77-4.52,18.88s1.51,13.4,4.52,18.88c3.01,5.48,7.11,9.73,12.29,12.74,5.18,3.01,10.96,4.52,17.34,4.52M681.51,274.69c-13.37,0-25.38-2.83-36.04-8.49-10.66-5.66-19.03-13.49-25.11-23.49s-9.12-21.26-9.12-33.79,3.04-23.79,9.12-33.79c6.08-10,14.45-17.83,25.11-23.49,10.66-5.66,22.68-8.49,36.04-8.49s25.39,2.83,36.05,8.49c10.66,5.66,19.03,13.49,25.11,23.49,6.08,10,9.12,21.26,9.12,33.79s-3.04,23.79-9.12,33.79-14.45,17.83-25.11,23.49c-10.66,5.66-22.68,8.49-36.05,8.49Z"/>
    <polygon class="cls-12" points="781.51 174.05 742.66 174.05 742.66 145.69 855.95 145.69 855.95 174.05 817.28 174.05 817.28 272.16 781.51 272.16 781.51 174.05"/>
    <path class="cls-12" d="M917.09,245.06c6.38,0,12.17-1.51,17.35-4.52,5.18-3.01,9.27-7.26,12.29-12.74,3.01-5.48,4.52-11.78,4.52-18.88s-1.51-13.4-4.52-18.88c-3.01-5.48-7.11-9.73-12.29-12.74-5.18-3.01-10.96-4.52-17.35-4.52s-12.17,1.51-17.34,4.52c-5.18,3.01-9.28,7.26-12.29,12.74-3.01,5.48-4.52,11.77-4.52,18.88s1.51,13.4,4.52,18.88c3.01,5.48,7.11,9.73,12.29,12.74,5.18,3.01,10.96,4.52,17.34,4.52M917.09,274.69c-13.37,0-25.38-2.83-36.04-8.49-10.66-5.66-19.03-13.49-25.11-23.49-6.08-10-9.12-21.26-9.12-33.79s3.04-23.79,9.12-33.79c6.08-10,14.45-17.83,25.11-23.49,10.66-5.66,22.68-8.49,36.04-8.49s25.39,2.83,36.05,8.49c10.66,5.66,19.03,13.49,25.11,23.49,6.08,10,9.12,21.26,9.12,33.79s-3.04,23.79-9.12,33.79-14.45,17.83-25.11,23.49c-10.66,5.66-22.68,8.49-36.05,8.49Z"/>
    <path class="cls-12" d="M1055.03,274.69c-13.25,0-25.14-2.8-35.68-8.4-10.54-5.6-18.82-13.4-24.84-23.4-6.02-10-9.03-21.32-9.03-33.97s3.01-23.97,9.03-33.97c6.02-10,14.3-17.8,24.84-23.4,10.54-5.6,22.44-8.4,35.68-8.4,11.56,0,21.98,2.05,31.26,6.14,9.27,4.1,16.98,10,23.13,17.71l-22.77,20.6c-8.19-9.88-18.13-14.81-29.81-14.81-6.87,0-12.98,1.51-18.34,4.52-5.36,3.01-9.52,7.26-12.47,12.74-2.95,5.48-4.43,11.77-4.43,18.88s1.48,13.4,4.43,18.88c2.95,5.48,7.11,9.73,12.47,12.74,5.36,3.01,11.47,4.52,18.34,4.52,11.68,0,21.62-4.94,29.81-14.82l22.77,20.6c-6.14,7.71-13.85,13.61-23.13,17.71-9.27,4.1-19.69,6.14-31.26,6.14"/>
    <path class="cls-12" d="M1172.19,245.06c6.38,0,12.17-1.51,17.35-4.52,5.18-3.01,9.28-7.26,12.29-12.74,3.01-5.48,4.52-11.78,4.52-18.88s-1.51-13.4-4.52-18.88c-3.01-5.48-7.11-9.73-12.29-12.74-5.18-3.01-10.96-4.52-17.35-4.52s-12.17,1.51-17.34,4.52c-5.18,3.01-9.27,7.26-12.29,12.74-3.01,5.48-4.52,11.77-4.52,18.88s1.51,13.4,4.52,18.88c3.01,5.48,7.11,9.73,12.29,12.74,5.18,3.01,10.96,4.52,17.34,4.52M1172.19,274.69c-13.37,0-25.38-2.83-36.04-8.49-10.66-5.66-19.03-13.49-25.11-23.49s-9.12-21.26-9.12-33.79,3.04-23.79,9.12-33.79c6.08-10,14.45-17.83,25.11-23.49,10.66-5.66,22.68-8.49,36.04-8.49s25.39,2.83,36.05,8.49c10.66,5.66,19.03,13.49,25.11,23.49,6.08,10,9.12,21.26,9.12,33.79s-3.04,23.79-9.12,33.79c-6.08,10-14.45,17.83-25.11,23.49-10.66,5.66-22.68,8.49-36.05,8.49Z"/>
    <polygon class="cls-12" points="1247.07 145.69 1282.84 145.69 1282.84 243.79 1343.19 243.79 1343.19 272.16 1247.07 272.16 1247.07 145.69"/>
  </g>
</svg>